Coordinates
version=1
nRows=5
nColumns=40
inDegrees=yes

Units are S.I. units (second, meters, Newtons, ...)
Angles are in degrees.

endheader
time	pelvis_tilt	pelvis_list	pelvis_rotation	pelvis_tx	pelvis_ty	pelvis_tz	hip_flexion_r	hip_adduction_r	hip_rotation_r	knee_angle_r	knee_angle_r_beta	ankle_angle_r	subtalar_angle_r	mtp_angle_r	hip_flexion_l	hip_adduction_l	hip_rotation_l	knee_angle_l	knee_angle_l_beta	ankle_angle_l	subtalar_angle_l	mtp_angle_l	lumbar_extension	lumbar_bending	lumbar_rotation	arm_flex_r	arm_add_r	arm_rot_r	elbow_flex_r	pro_sup_r	wrist_flex_r	wrist_dev_r	arm_flex_l	arm_add_l	arm_rot_l	elbow_flex_l	pro_sup_l	wrist_flex_l	wrist_dev_l
     43.04000000	     -6.11720376	     -7.31979854	      1.71649300	      1.04934558	      0.91151274	      0.50043038	     -2.95375504	      6.52951872	    -15.01163185	      7.80957336	      7.80957336	     18.81689681	     12.94079114	     -1.28107345	     34.77453131	    -11.33722715	     -2.59044685	     20.28066617	     20.28066617	      3.76222008	     -5.62573161	     11.78607089	    -10.61060861	      9.55700715	      4.35530350	     35.32461964	    -14.56825235	      8.30162167	    106.42289682	     43.49152391	      0.00000000	      0.00000000	    -23.42699683	     -9.01345313	      4.19169168	     32.98446422	     46.07188318	      0.00000000	      0.00000000
     43.05185714	     -6.13898283	     -7.17803029	      1.61079031	      1.05039378	      0.91053059	      0.49799254	     -3.36785776	      6.12467836	    -14.82192848	      8.28507646	      8.28507646	     19.44390450	     12.85077357	     -0.72182189	     34.08282805	    -10.90775446	     -2.11147841	     20.14531735	     20.14531735	      0.44593943	     -7.16133377	      5.41027088	    -10.45498573	      9.38270217	      5.09558818	     34.52493987	    -15.25389522	      8.24846113	    109.11971691	     43.54740355	      0.00000000	      0.00000000	    -22.63613615	     -9.18510973	      4.51148333	     33.00603808	     45.99730057	      0.00000000	      0.00000000
     43.06371429	     -6.16853510	     -6.97411705	      1.62396681	      1.05122047	      0.91005518	      0.49535043	     -3.85498264	      5.68079392	    -14.70570635	      8.51939575	      8.51939575	     19.63507659	     12.78635646	     -0.78515067	     33.84493829	    -10.51136205	     -1.92226399	     20.91200504	     20.91200504	      0.13301318	     -7.34203928	      5.34291715	    -10.22785731	      9.13859023	      4.88539988	     34.36897890	    -15.01088829	      8.44519277	    109.37945630	     43.53624178	      0.00000000	      0.00000000	    -22.11651524	     -9.16068382	      4.52536533	     33.17509565	     46.00233701	      0.00000000	      0.00000000
     43.07557143	     -6.29096788	     -6.75436033	      1.62712631	      1.05182148	      0.90960605	      0.49238126	     -3.86508580	      5.06125768	    -14.80854793	      9.48015753	      9.48015753	     19.98946842	     12.77412305	     -1.04154703	     33.82702916	     -9.96449932	     -1.20698847	     21.85111850	     21.85111850	     -0.18779689	     -8.60311636	      5.11438218	    -10.06493452	      8.92145910	      4.80901785	     33.86747704	    -15.16810271	      8.97869844	    111.19577515	     43.49754469	      0.00000000	      0.00000000	    -21.54014730	     -9.19055621	      4.47261120	     33.33485267	     46.00721167	      0.00000000	      0.00000000
     43.08742857	     -6.28696628	     -6.55783959	      1.67452661	      1.05248217	      0.90984291	      0.48934611	     -4.26551800	      4.55387935	    -14.78878437	      9.90203256	      9.90203256	     19.97481361	     12.77587491	     -1.08756597	     33.66239115	     -9.54098398	     -0.90016720	     22.77253810	     22.77253810	      0.02257375	     -9.11925229	      4.89756924	     -9.99870649	      8.71465458	      4.60168637	     33.43728584	    -15.08606156	      9.12512847	    111.48887105	     43.48979456	      0.00000000	      0.00000000	    -20.84731339	     -9.24926183	      4.43240515	     33.55536237	     46.02070775	      0.00000000	      0.00000000
